<svg t="1662426287585" class="icon" viewBox="0 0 1024 1024" version="1.1" xmlns="http://www.w3.org/2000/svg" p-id="10224" width="200" height="200"><path d="M646.637037 502.518519c66.37037-43.614815 109.985185-117.57037 109.985185-202.903704C756.622222 166.874074 646.637037 56.888889 512 56.888889S267.377778 166.874074 267.377778 299.614815c0 85.333333 43.614815 159.288889 109.985185 202.903704-185.837037 56.888889-320.474074 227.555556-320.474074 428.562962V967.111111h910.222222v-34.133333c0-202.903704-134.637037-373.57037-320.474074-430.459259zM337.540741 299.614815c0-94.814815 77.748148-172.562963 174.459259-172.562963s174.459259 77.748148 174.459259 172.562963-77.748148 172.562963-174.459259 172.562963-174.459259-77.748148-174.459259-172.562963z m-208.592593 597.333333c18.962963-193.422222 183.940741-345.125926 383.051852-345.125926s365.985185 151.703704 383.051852 345.125926H128.948148z" p-id="10225"></path></svg>