<svg t="1662426929295" class="icon" viewBox="0 0 1024 1024" version="1.1" xmlns="http://www.w3.org/2000/svg" p-id="10991" width="200" height="200"><path d="M884.363636 884.363636H139.636364a116.363636 116.363636 0 0 1-116.363637-116.363636v-512A116.363636 116.363636 0 0 1 139.636364 139.636364h744.727272a116.363636 116.363636 0 0 1 116.363637 116.363636v512A116.363636 116.363636 0 0 1 884.363636 884.363636zM139.636364 186.181818a69.818182 69.818182 0 0 0-69.818182 69.818182v512A69.818182 69.818182 0 0 0 139.636364 837.818182h744.727272a69.818182 69.818182 0 0 0 69.818182-69.818182v-512A69.818182 69.818182 0 0 0 884.363636 186.181818z" p-id="10992"></path><path d="M833.629091 418.909091h-201.076364a23.272727 23.272727 0 0 1 0-46.545455h201.076364a23.272727 23.272727 0 0 1 0 46.545455zM833.629091 535.272727h-201.076364a23.272727 23.272727 0 0 1 0-46.545454h201.076364a23.272727 23.272727 0 0 1 0 46.545454zM833.629091 651.636364h-201.076364a23.272727 23.272727 0 0 1 0-46.545455h201.076364a23.272727 23.272727 0 0 1 0 46.545455zM364.916364 515.723636a129.861818 129.861818 0 1 1 129.861818-129.861818 129.861818 129.861818 0 0 1-129.861818 129.861818z m0-213.178181a83.316364 83.316364 0 1 0 83.316363 83.316363A83.316364 83.316364 0 0 0 364.916364 302.545455zM554.356364 768H175.010909a23.272727 23.272727 0 0 1-23.272727-23.272727v-9.309091a198.749091 198.749091 0 0 1 191.767273-204.334546h42.356363a198.749091 198.749091 0 0 1 191.767273 204.334546v9.309091a23.272727 23.272727 0 0 1-23.272727 23.272727z m-355.607273-46.545455h331.869091a150.807273 150.807273 0 0 0-144.756364-143.825454h-42.356363a151.272727 151.272727 0 0 0-144.756364 143.825454z" p-id="10993"></path></svg>